<svg width="15" height="15" viewBox="0 0 15 15" fill="none" xmlns="http://www.w3.org/2000/svg">
<path d="M14.1248 11.4732C14.3642 11.7125 14.4747 12.0072 14.4562 12.357C14.4747 12.7069 14.3642 13.0015 14.1248 13.2409L13.2409 14.1248C13.0015 14.3642 12.6977 14.4839 12.3294 14.4839C11.9979 14.4839 11.7125 14.3642 11.4731 14.1248L7.49566 10.1473L3.51819 14.1248C3.2788 14.3642 2.98417 14.4747 2.6343 14.4563C2.28443 14.4747 1.9898 14.3642 1.75042 14.1248L0.866535 13.2409C0.62715 13.0015 0.507457 12.6977 0.507457 12.3294C0.507457 11.998 0.62715 11.7125 0.866535 11.4732L4.84401 7.49569L0.866535 3.51821C0.62715 3.27883 0.49825 2.9842 0.479836 2.63433C0.49825 2.28446 0.62715 1.98983 0.866535 1.75045L1.75042 0.866563C1.9898 0.627178 2.27522 0.507485 2.60668 0.507485C2.97497 0.507485 3.2788 0.627178 3.51819 0.866563L7.49566 4.84404L11.4731 0.866563C11.7125 0.627178 11.9979 0.507485 12.3294 0.507485C12.6977 0.507485 13.0015 0.627178 13.2409 0.866563L14.1248 1.75045C14.3642 1.98983 14.4747 2.28446 14.4562 2.63433C14.4747 2.9842 14.3642 3.27883 14.1248 3.51821L10.1473 7.49569L14.1248 11.4732Z" fill="#7E7E7E"/>
</svg>
