<svg width="90" height="32" viewBox="0 0 90 32" fill="none" xmlns="http://www.w3.org/2000/svg">
<g filter="url(#filter0_d)">
<path d="M5.41162 10.3529C5.41162 4.63517 10.0468 0 15.7646 0H73.9999C79.7176 0 84.3528 4.63517 84.3528 10.3529C84.3528 16.0707 79.7176 20.7059 73.9999 20.7059H15.7646C10.0468 20.7059 5.41162 16.0707 5.41162 10.3529Z" fill="#F1F1F1"/>
<path d="M5.41162 10.3529C5.41162 4.63517 10.0468 0 15.7646 0H73.9999C79.7176 0 84.3528 4.63517 84.3528 10.3529C84.3528 16.0707 79.7176 20.7059 73.9999 20.7059H15.7646C10.0468 20.7059 5.41162 16.0707 5.41162 10.3529Z" fill="#F1F1F1"/>
</g>
<path d="M21.442 11.3733C21.442 10.7211 21.574 10.1504 21.838 9.66118C22.102 9.16424 22.463 8.77989 22.9212 8.50813C23.387 8.23636 23.9073 8.10048 24.4819 8.10048C24.9788 8.10048 25.4408 8.21695 25.8679 8.44989C26.2949 8.67507 26.621 8.97401 26.8462 9.34671V5.96907H27.9178V14.5879H26.8462V13.3882C26.6366 13.7687 26.326 14.0832 25.9145 14.3317C25.5029 14.5724 25.0215 14.6927 24.4702 14.6927C23.9034 14.6927 23.387 14.5529 22.9212 14.2734C22.463 13.9939 22.102 13.6018 21.838 13.0971C21.574 12.5924 21.442 12.0178 21.442 11.3733ZM26.8462 11.3849C26.8462 10.9035 26.7492 10.4842 26.555 10.1271C26.3609 9.76989 26.0969 9.49813 25.763 9.31177C25.4369 9.11766 25.0759 9.0206 24.6799 9.0206C24.2839 9.0206 23.9228 9.11377 23.5967 9.30013C23.2706 9.48648 23.0105 9.75824 22.8163 10.1154C22.6222 10.4726 22.5252 10.8919 22.5252 11.3733C22.5252 11.8625 22.6222 12.2895 22.8163 12.6545C23.0105 13.0117 23.2706 13.2873 23.5967 13.4814C23.9228 13.6678 24.2839 13.7609 24.6799 13.7609C25.0759 13.7609 25.4369 13.6678 25.763 13.4814C26.0969 13.2873 26.3609 13.0117 26.555 12.6545C26.7492 12.2895 26.8462 11.8664 26.8462 11.3849ZM32.4925 14.6927C31.8946 14.6927 31.3511 14.5568 30.8619 14.2851C30.3805 14.0133 30 13.6289 29.7205 13.132C29.4487 12.6273 29.3128 12.0449 29.3128 11.3849C29.3128 10.7327 29.4526 10.1581 29.7321 9.66118C30.0194 9.15648 30.4077 8.77213 30.8968 8.50813C31.386 8.23636 31.9334 8.10048 32.5391 8.10048C33.1447 8.10048 33.6921 8.23636 34.1813 8.50813C34.6705 8.77213 35.0548 9.1526 35.3344 9.64954C35.6217 10.1465 35.7653 10.7249 35.7653 11.3849C35.7653 12.0449 35.6178 12.6273 35.3227 13.132C35.0354 13.6289 34.6433 14.0133 34.1464 14.2851C33.6494 14.5568 33.0981 14.6927 32.4925 14.6927ZM32.4925 13.7609C32.873 13.7609 33.2301 13.6717 33.564 13.4931C33.8979 13.3145 34.1658 13.0466 34.3677 12.6894C34.5773 12.3322 34.6821 11.8974 34.6821 11.3849C34.6821 10.8725 34.5812 10.4377 34.3793 10.0805C34.1774 9.7233 33.9134 9.4593 33.5873 9.28848C33.2612 9.10989 32.9079 9.0206 32.5274 9.0206C32.1392 9.0206 31.782 9.10989 31.4559 9.28848C31.1376 9.4593 30.8813 9.7233 30.6872 10.0805C30.4931 10.4377 30.396 10.8725 30.396 11.3849C30.396 11.9052 30.4892 12.3439 30.6756 12.7011C30.8697 13.0582 31.1259 13.3261 31.4443 13.5047C31.7626 13.6755 32.112 13.7609 32.4925 13.7609ZM45.6612 8.2053L43.6696 14.5879H42.5748L41.0373 9.52142L39.4999 14.5879H38.4051L36.4018 8.2053H37.485L38.9525 13.5629L40.5365 8.2053H41.6197L43.1688 13.5746L44.613 8.2053H45.6612ZM49.8229 8.08883C50.5993 8.08883 51.2283 8.32566 51.7097 8.7993C52.1911 9.26518 52.4318 9.94071 52.4318 10.8259V14.5879H51.3836V10.9773C51.3836 10.3406 51.2244 9.8553 50.906 9.52142C50.5877 9.17977 50.1529 9.00895 49.6016 9.00895C49.0425 9.00895 48.596 9.18366 48.2622 9.53307C47.936 9.88248 47.773 10.3911 47.773 11.0588V14.5879H46.7131V8.2053H47.773V9.11377C47.9826 8.78766 48.266 8.5353 48.6232 8.35671C48.9882 8.17813 49.388 8.08883 49.8229 8.08883ZM55.223 5.96907V14.5879H54.1631V5.96907H55.223ZM59.813 14.6927C59.2152 14.6927 58.6716 14.5568 58.1825 14.2851C57.701 14.0133 57.3206 13.6289 57.041 13.132C56.7693 12.6273 56.6334 12.0449 56.6334 11.3849C56.6334 10.7327 56.7732 10.1581 57.0527 9.66118C57.34 9.15648 57.7282 8.77213 58.2174 8.50813C58.7066 8.23636 59.254 8.10048 59.8596 8.10048C60.4653 8.10048 61.0127 8.23636 61.5019 8.50813C61.991 8.77213 62.3754 9.1526 62.6549 9.64954C62.9422 10.1465 63.0859 10.7249 63.0859 11.3849C63.0859 12.0449 62.9383 12.6273 62.6433 13.132C62.356 13.6289 61.9639 14.0133 61.4669 14.2851C60.97 14.5568 60.4187 14.6927 59.813 14.6927ZM59.813 13.7609C60.1935 13.7609 60.5507 13.6717 60.8846 13.4931C61.2185 13.3145 61.4863 13.0466 61.6882 12.6894C61.8979 12.3322 62.0027 11.8974 62.0027 11.3849C62.0027 10.8725 61.9017 10.4377 61.6999 10.0805C61.498 9.7233 61.234 9.4593 60.9079 9.28848C60.5817 9.10989 60.2285 9.0206 59.848 9.0206C59.4597 9.0206 59.1026 9.10989 58.7765 9.28848C58.4581 9.4593 58.2019 9.7233 58.0077 10.0805C57.8136 10.4377 57.7166 10.8725 57.7166 11.3849C57.7166 11.9052 57.8097 12.3439 57.9961 12.7011C58.1902 13.0582 58.4465 13.3261 58.7648 13.5047C59.0832 13.6755 59.4326 13.7609 59.813 13.7609ZM64.0834 11.3733C64.0834 10.7211 64.2154 10.1504 64.4794 9.66118C64.7434 9.16424 65.1045 8.77989 65.5626 8.50813C66.0285 8.23636 66.5448 8.10048 67.1117 8.10048C67.6707 8.10048 68.156 8.22083 68.5675 8.46154C68.9791 8.70224 69.2858 9.00507 69.4877 9.37001V8.2053H70.5592V14.5879H69.4877V13.3999C69.278 13.7726 68.9635 14.0832 68.5442 14.3317C68.1327 14.5724 67.6513 14.6927 67.1 14.6927C66.5332 14.6927 66.0207 14.5529 65.5626 14.2734C65.1045 13.9939 64.7434 13.6018 64.4794 13.0971C64.2154 12.5924 64.0834 12.0178 64.0834 11.3733ZM69.4877 11.3849C69.4877 10.9035 69.3906 10.4842 69.1965 10.1271C69.0024 9.76989 68.7384 9.49813 68.4045 9.31177C68.0784 9.11766 67.7173 9.0206 67.3213 9.0206C66.9253 9.0206 66.5642 9.11377 66.2381 9.30013C65.912 9.48648 65.6519 9.75824 65.4578 10.1154C65.2637 10.4726 65.1666 10.8919 65.1666 11.3733C65.1666 11.8625 65.2637 12.2895 65.4578 12.6545C65.6519 13.0117 65.912 13.2873 66.2381 13.4814C66.5642 13.6678 66.9253 13.7609 67.3213 13.7609C67.7173 13.7609 68.0784 13.6678 68.4045 13.4814C68.7384 13.2873 69.0024 13.0117 69.1965 12.6545C69.3906 12.2895 69.4877 11.8664 69.4877 11.3849ZM71.9543 11.3733C71.9543 10.7211 72.0863 10.1504 72.3503 9.66118C72.6143 9.16424 72.9753 8.77989 73.4335 8.50813C73.8993 8.23636 74.4196 8.10048 74.9942 8.10048C75.4911 8.10048 75.9531 8.21695 76.3802 8.44989C76.8072 8.67507 77.1333 8.97401 77.3585 9.34671V5.96907H78.43V14.5879H77.3585V13.3882C77.1489 13.7687 76.8383 14.0832 76.4267 14.3317C76.0152 14.5724 75.5338 14.6927 74.9825 14.6927C74.4157 14.6927 73.8993 14.5529 73.4335 14.2734C72.9753 13.9939 72.6143 13.6018 72.3503 13.0971C72.0863 12.5924 71.9543 12.0178 71.9543 11.3733ZM77.3585 11.3849C77.3585 10.9035 77.2615 10.4842 77.0673 10.1271C76.8732 9.76989 76.6092 9.49813 76.2753 9.31177C75.9492 9.11766 75.5882 9.0206 75.1922 9.0206C74.7962 9.0206 74.4351 9.11377 74.109 9.30013C73.7829 9.48648 73.5227 9.75824 73.3286 10.1154C73.1345 10.4726 73.0375 10.8919 73.0375 11.3733C73.0375 11.8625 73.1345 12.2895 73.3286 12.6545C73.5227 13.0117 73.7829 13.2873 74.109 13.4814C74.4351 13.6678 74.7962 13.7609 75.1922 13.7609C75.5882 13.7609 75.9492 13.6678 76.2753 13.4814C76.6092 13.2873 76.8732 13.0117 77.0673 12.6545C77.2615 12.2895 77.3585 11.8664 77.3585 11.3849Z" fill="#858585"/>
<path fill-rule="evenodd" clip-rule="evenodd" d="M20.0247 9.2469H17.2207V5.04102H13.0149V9.2469H10.2109L15.1178 14.1538L20.0247 9.2469ZM14.4169 10.6488V6.44293H15.8188V10.6488H16.639L15.1178 12.1699L13.5967 10.6488H14.4169ZM20.0247 15.5558H10.2109V16.9577H20.0247V15.5558Z" fill="black" fill-opacity="0.54"/>
<defs>
<filter id="filter0_d" x="0.235151" y="0" width="89.2941" height="31.0588" filterUnits="userSpaceOnUse" color-interpolation-filters="sRGB">
<feFlood flood-opacity="0" result="BackgroundImageFix"/>
<feColorMatrix in="SourceAlpha" type="matrix" values="0 0 0 0 0 0 0 0 0 0 0 0 0 0 0 0 0 0 127 0"/>
<feOffset dy="5.17647"/>
<feGaussianBlur stdDeviation="2.58824"/>
<feColorMatrix type="matrix" values="0 0 0 0 0 0 0 0 0 0 0 0 0 0 0 0 0 0 0.25 0"/>
<feBlend mode="normal" in2="BackgroundImageFix" result="effect1_dropShadow"/>
<feBlend mode="normal" in="SourceGraphic" in2="effect1_dropShadow" result="shape"/>
</filter>
</defs>
</svg>
