<svg width="62" height="32" viewBox="0 0 62 32" fill="none" xmlns="http://www.w3.org/2000/svg">
<g filter="url(#filter0_d)">
<path d="M6 10.3529C6 4.63517 10.6352 0 16.3529 0H46.1176C51.8354 0 56.4706 4.63517 56.4706 10.3529C56.4706 16.0707 51.8354 20.7059 46.1177 20.7059H16.3529C10.6352 20.7059 6 16.0707 6 10.3529Z" fill="#F1F1F1"/>
<path d="M6 10.3529C6 4.63517 10.6352 0 16.3529 0H46.1176C51.8354 0 56.4706 4.63517 56.4706 10.3529C56.4706 16.0707 51.8354 20.7059 46.1177 20.7059H16.3529C10.6352 20.7059 6 16.0707 6 10.3529Z" fill="#F1F1F1"/>
</g>
<path d="M24.1564 13.1048C23.6672 13.1048 23.2285 13.0233 22.8402 12.8602C22.452 12.6894 22.1453 12.4565 21.9201 12.1614C21.6949 11.8586 21.5707 11.5131 21.5474 11.1248H22.6422C22.6733 11.4432 22.8208 11.7033 23.0848 11.9052C23.3566 12.1071 23.7099 12.208 24.1447 12.208C24.5485 12.208 24.8668 12.1187 25.0998 11.9401C25.3327 11.7615 25.4492 11.5364 25.4492 11.2646C25.4492 10.9851 25.3249 10.7793 25.0765 10.6473C24.828 10.5075 24.4436 10.3716 23.9234 10.2396C23.4498 10.1154 23.0615 9.99118 22.7587 9.86694C22.4636 9.73494 22.2074 9.54471 21.99 9.29624C21.7804 9.04 21.6755 8.70612 21.6755 8.29459C21.6755 7.96847 21.7726 7.66953 21.9667 7.39776C22.1608 7.126 22.4365 6.91247 22.7936 6.75718C23.1508 6.59412 23.5585 6.51259 24.0166 6.51259C24.7232 6.51259 25.2939 6.69118 25.7287 7.04835C26.1635 7.40553 26.3965 7.89471 26.4275 8.51588H25.3676C25.3444 8.182 25.2085 7.91412 24.96 7.71224C24.7193 7.51035 24.3932 7.40941 23.9816 7.40941C23.6012 7.40941 23.2984 7.49094 23.0732 7.654C22.848 7.81706 22.7354 8.03059 22.7354 8.29459C22.7354 8.50424 22.8014 8.67894 22.9334 8.81871C23.0732 8.95071 23.244 9.05941 23.4459 9.14482C23.6555 9.22247 23.9428 9.31176 24.3078 9.41271C24.7659 9.53694 25.1386 9.66118 25.4259 9.78541C25.7132 9.90188 25.9578 10.0805 26.1596 10.3212C26.3693 10.5619 26.478 10.8764 26.4858 11.2646C26.4858 11.614 26.3887 11.9285 26.1946 12.208C26.0005 12.4875 25.7248 12.7088 25.3676 12.8719C25.0182 13.0272 24.6145 13.1048 24.1564 13.1048ZM31.15 6.50094C31.6314 6.50094 32.0662 6.60576 32.4544 6.81541C32.8427 7.01729 33.1455 7.324 33.3629 7.73553C33.5881 8.14706 33.7007 8.64788 33.7007 9.238V13H32.6524V9.38941C32.6524 8.75271 32.4933 8.26741 32.1749 7.93353C31.8565 7.59188 31.4217 7.42106 30.8704 7.42106C30.3114 7.42106 29.8649 7.59576 29.531 7.94518C29.2049 8.29459 29.0418 8.80318 29.0418 9.47094V13H27.982V4.38118H29.0418V7.52588C29.2515 7.19976 29.5388 6.94741 29.9037 6.76882C30.2764 6.59024 30.6918 6.50094 31.15 6.50094ZM35.036 9.78541C35.036 9.13318 35.168 8.56247 35.432 8.07329C35.696 7.57635 36.057 7.192 36.5152 6.92024C36.981 6.64847 37.4974 6.51259 38.0642 6.51259C38.6233 6.51259 39.1086 6.63294 39.5201 6.87365C39.9316 7.11435 40.2383 7.41718 40.4402 7.78212V6.61741H41.5117V13H40.4402V11.812C40.2306 12.1847 39.9161 12.4953 39.4968 12.7438C39.0853 12.9845 38.6039 13.1048 38.0526 13.1048C37.4857 13.1048 36.9733 12.9651 36.5152 12.6855C36.057 12.406 35.696 12.0139 35.432 11.5092C35.168 11.0045 35.036 10.4299 35.036 9.78541ZM40.4402 9.79706C40.4402 9.31565 40.3432 8.89635 40.149 8.53918C39.9549 8.182 39.6909 7.91024 39.357 7.72388C39.0309 7.52976 38.6699 7.43271 38.2739 7.43271C37.8779 7.43271 37.5168 7.52588 37.1907 7.71224C36.8646 7.89859 36.6045 8.17035 36.4103 8.52753C36.2162 8.88471 36.1192 9.304 36.1192 9.78541C36.1192 10.2746 36.2162 10.7016 36.4103 11.0666C36.6045 11.4238 36.8646 11.6994 37.1907 11.8935C37.5168 12.0799 37.8779 12.1731 38.2739 12.1731C38.6699 12.1731 39.0309 12.0799 39.357 11.8935C39.6909 11.6994 39.9549 11.4238 40.149 11.0666C40.3432 10.7016 40.4402 10.2785 40.4402 9.79706ZM44.3627 7.654C44.5491 7.28906 44.8131 7.00565 45.1547 6.80376C45.5041 6.60188 45.9273 6.50094 46.4243 6.50094V7.59576H46.1447C44.9567 7.59576 44.3627 8.24024 44.3627 9.52918V13H43.3028V6.61741H44.3627V7.654ZM53.4713 9.56412C53.4713 9.766 53.4596 9.97953 53.4363 10.2047H48.3349C48.3737 10.8336 48.5873 11.3267 48.9755 11.6839C49.3715 12.0333 49.849 12.208 50.4081 12.208C50.8662 12.208 51.2467 12.1032 51.5495 11.8935C51.8601 11.6761 52.0775 11.3888 52.2017 11.0316H53.3432C53.1723 11.6451 52.8307 12.1459 52.3182 12.5341C51.8057 12.9146 51.169 13.1048 50.4081 13.1048C49.8024 13.1048 49.2589 12.9689 48.7775 12.6972C48.3039 12.4254 47.9312 12.0411 47.6594 11.5441C47.3876 11.0394 47.2517 10.4571 47.2517 9.79706C47.2517 9.13706 47.3837 8.55859 47.6477 8.06165C47.9117 7.56471 48.2806 7.18424 48.7542 6.92024C49.2356 6.64847 49.7869 6.51259 50.4081 6.51259C51.0137 6.51259 51.5495 6.64459 52.0154 6.90859C52.4813 7.17259 52.8384 7.53753 53.0869 8.00341C53.3432 8.46153 53.4713 8.98176 53.4713 9.56412ZM52.3764 9.34282C52.3764 8.93906 52.2872 8.59353 52.1086 8.30624C51.93 8.01118 51.6854 7.78988 51.3748 7.64235C51.072 7.48706 50.7342 7.40941 50.3615 7.40941C49.8257 7.40941 49.3676 7.58024 48.9872 7.92188C48.6144 8.26353 48.4009 8.73718 48.3466 9.34282H52.3764Z" fill="#858585"/>
<path fill-rule="evenodd" clip-rule="evenodd" d="M16.02 12.4445C16.28 12.2095 16.62 12.0595 17 12.0595C17.805 12.0595 18.46 12.7145 18.46 13.5195C18.46 14.3245 17.805 14.9795 17 14.9795C16.195 14.9795 15.54 14.3245 15.54 13.5195C15.54 13.4095 15.555 13.2995 15.58 13.1945L12.02 11.1145C11.75 11.3645 11.395 11.5195 11 11.5195C10.17 11.5195 9.5 10.8495 9.5 10.0195C9.5 9.18953 10.17 8.51953 11 8.51953C11.395 8.51953 11.75 8.67453 12.02 8.92453L15.545 6.86953C15.52 6.75453 15.5 6.63953 15.5 6.51953C15.5 5.68953 16.17 5.01953 17 5.01953C17.83 5.01953 18.5 5.68953 18.5 6.51953C18.5 7.34953 17.83 8.01953 17 8.01953C16.605 8.01953 16.25 7.86453 15.98 7.61453L12.455 9.66953C12.48 9.78453 12.5 9.89953 12.5 10.0195C12.5 10.1395 12.48 10.2545 12.455 10.3695L16.02 12.4445ZM17.5 6.51953C17.5 6.24453 17.275 6.01953 17 6.01953C16.725 6.01953 16.5 6.24453 16.5 6.51953C16.5 6.79453 16.725 7.01953 17 7.01953C17.275 7.01953 17.5 6.79453 17.5 6.51953ZM11 10.5195C10.725 10.5195 10.5 10.2945 10.5 10.0195C10.5 9.74453 10.725 9.51953 11 9.51953C11.275 9.51953 11.5 9.74453 11.5 10.0195C11.5 10.2945 11.275 10.5195 11 10.5195ZM16.5 13.5295C16.5 13.8045 16.725 14.0295 17 14.0295C17.275 14.0295 17.5 13.8045 17.5 13.5295C17.5 13.2545 17.275 13.0295 17 13.0295C16.725 13.0295 16.5 13.2545 16.5 13.5295Z" fill="black" fill-opacity="0.54"/>
<defs>
<filter id="filter0_d" x="0.82353" y="0" width="60.8235" height="31.0588" filterUnits="userSpaceOnUse" color-interpolation-filters="sRGB">
<feFlood flood-opacity="0" result="BackgroundImageFix"/>
<feColorMatrix in="SourceAlpha" type="matrix" values="0 0 0 0 0 0 0 0 0 0 0 0 0 0 0 0 0 0 127 0"/>
<feOffset dy="5.17647"/>
<feGaussianBlur stdDeviation="2.58824"/>
<feColorMatrix type="matrix" values="0 0 0 0 0 0 0 0 0 0 0 0 0 0 0 0 0 0 0.25 0"/>
<feBlend mode="normal" in2="BackgroundImageFix" result="effect1_dropShadow"/>
<feBlend mode="normal" in="SourceGraphic" in2="effect1_dropShadow" result="shape"/>
</filter>
</defs>
</svg>
