<svg width="67" height="67" viewBox="0 0 67 67" fill="none" xmlns="http://www.w3.org/2000/svg" xmlns:xlink="http://www.w3.org/1999/xlink">
<g filter="url(#filter0_b)">
<rect x="0.226074" width="66.1936" height="66.1936" rx="8" fill="white" fill-opacity="0.6"/>
</g>
<path d="M33.3228 16.5488C24.184 16.5488 16.7744 23.9584 16.7744 33.0972C16.7744 42.2361 24.184 49.6456 33.3228 49.6456C42.4616 49.6456 49.8712 42.2361 49.8712 33.0972C49.8712 23.9584 42.4616 16.5488 33.3228 16.5488ZM34.7018 38.6919V34.4762H38.8307C38.7493 36.0525 38.5383 37.5653 38.2018 38.9981C37.0669 38.8326 35.8933 38.7388 34.7018 38.6919ZM37.4006 41.6734C36.7125 43.5075 35.8023 45.1169 34.7018 46.4394V41.4473C35.6203 41.4859 36.5208 41.559 37.4006 41.6734ZM34.7018 31.7182V27.5604C35.8988 27.5135 37.0751 27.4184 38.2156 27.2515C38.5438 28.6678 38.7521 30.1626 38.8307 31.7182H34.7018ZM34.7018 24.8037V19.7551C35.8133 21.0914 36.7304 22.72 37.4199 24.5762C36.5346 24.692 35.6272 24.7651 34.7018 24.8037ZM38.4294 20.2984C40.1352 20.9824 41.6756 21.9919 42.9664 23.2578C42.081 23.5805 41.1585 23.8674 40.1821 24.0949C39.7077 22.7269 39.1134 21.4609 38.4294 20.2984ZM28.4438 38.9981C28.1073 37.5653 27.8949 36.0525 27.8149 34.4762H31.9438V38.6919C30.7509 38.7388 29.5801 38.8326 28.4438 38.9981ZM31.9438 41.4473V46.4394C30.8433 45.1169 29.9331 43.5075 29.245 41.6734C30.1248 41.559 31.0253 41.4859 31.9438 41.4473ZM27.8149 31.7182C27.8936 30.1626 28.1004 28.6678 28.43 27.2515C29.5705 27.4184 30.7468 27.5135 31.9438 27.5604V31.7182H27.8149ZM29.2271 24.5762C29.9166 22.72 30.8336 21.0914 31.9438 19.7551V24.8037C31.0184 24.7651 30.111 24.692 29.2271 24.5762ZM26.4621 24.0935C25.4858 23.866 24.5632 23.5791 23.6792 23.2564C24.9714 21.9905 26.5104 20.981 28.2162 20.297C27.5322 21.4609 26.9379 22.7269 26.4621 24.0935ZM25.705 26.7385C25.341 28.3258 25.1065 29.993 25.0265 31.7182H19.6028C19.8303 29.4317 20.6219 27.3094 21.8327 25.4877C23.0463 25.9855 24.337 26.4117 25.705 26.7385ZM25.7174 39.5111C24.355 39.8365 23.0697 40.2585 21.8603 40.7522C20.6329 38.9209 19.8317 36.782 19.6028 34.4762H25.0279C25.1079 36.2207 25.3465 37.9073 25.7174 39.5111ZM26.48 42.1547C26.9517 43.5006 27.5391 44.7487 28.2135 45.8946C26.5269 45.2189 25.0059 44.2246 23.7234 42.978C24.6004 42.6622 25.5147 42.3781 26.48 42.1547ZM40.1656 42.1547C41.1309 42.3795 42.0438 42.6608 42.9222 42.978C41.6384 44.2232 40.1173 45.2189 38.4307 45.896C39.1051 44.7487 39.6926 43.5006 40.1656 42.1547ZM40.9282 39.5111C41.3005 37.9073 41.5377 36.2207 41.6191 34.4762H47.0442C46.8139 36.782 46.0127 38.9209 44.7853 40.7522C43.5759 40.2585 42.2893 39.8365 40.9282 39.5111ZM41.6191 31.7182C41.5391 29.993 41.3033 28.3258 40.9406 26.7385C42.3086 26.4117 43.6007 25.9855 44.8143 25.4877C46.0237 27.3094 46.8153 29.4317 47.0428 31.7182H41.6191Z" fill="black" fill-opacity="0.6"/>
<defs>
<filter id="filter0_b" x="-39.7739" y="-40" width="146.194" height="146.194" filterUnits="userSpaceOnUse" color-interpolation-filters="sRGB">
<feFlood flood-opacity="0" result="BackgroundImageFix"/>
<feGaussianBlur in="BackgroundImage" stdDeviation="20"/>
<feComposite in2="SourceAlpha" operator="in" result="effect1_backgroundBlur"/>
<feBlend mode="normal" in="SourceGraphic" in2="effect1_backgroundBlur" result="shape"/>
</filter>
<pattern id="pattern0" patternContentUnits="objectBoundingBox" width="1" height="1">
<use xlink:href="#image0" transform="scale(0.0333333)"/>
</pattern>
</defs>
</svg>
