<svg width="62" height="32" viewBox="0 0 62 32" fill="none" xmlns="http://www.w3.org/2000/svg">
<g filter="url(#filter0_d)">
<path d="M6 10.3529C6 4.63517 10.6352 0 16.3529 0H46.1176C51.8354 0 56.4706 4.63517 56.4706 10.3529C56.4706 16.0707 51.8354 20.7059 46.1177 20.7059H16.3529C10.6352 20.7059 6 16.0707 6 10.3529Z" fill="#F1F1F1"/>
<path d="M6 10.3529C6 4.63517 10.6352 0 16.3529 0H46.1176C51.8354 0 56.4706 4.63517 56.4706 10.3529C56.4706 16.0707 51.8354 20.7059 46.1177 20.7059H16.3529C10.6352 20.7059 6 16.0707 6 10.3529Z" fill="#F1F1F1"/>
</g>
<path d="M29.9789 13.6095L31.9589 8.2053H33.0886L30.5845 14.5879H29.3499L26.8458 8.2053H27.9872L29.9789 13.6095ZM34.679 7.16871C34.4771 7.16871 34.3063 7.09883 34.1665 6.95907C34.0268 6.8193 33.9569 6.64848 33.9569 6.4466C33.9569 6.24471 34.0268 6.07389 34.1665 5.93413C34.3063 5.79436 34.4771 5.72448 34.679 5.72448C34.8731 5.72448 35.0362 5.79436 35.1682 5.93413C35.308 6.07389 35.3778 6.24471 35.3778 6.4466C35.3778 6.64848 35.308 6.8193 35.1682 6.95907C35.0362 7.09883 34.8731 7.16871 34.679 7.16871ZM35.1915 8.2053V14.5879H34.1316V8.2053H35.1915ZM42.8214 11.152C42.8214 11.3539 42.8098 11.5674 42.7865 11.7926H37.685C37.7239 12.4215 37.9374 12.9146 38.3256 13.2718C38.7216 13.6212 39.1992 13.7959 39.7582 13.7959C40.2163 13.7959 40.5968 13.6911 40.8996 13.4814C41.2102 13.264 41.4276 12.9767 41.5519 12.6195H42.6933C42.5225 13.2329 42.1808 13.7338 41.6683 14.122C41.1559 14.5025 40.5192 14.6927 39.7582 14.6927C39.1526 14.6927 38.609 14.5568 38.1276 14.2851C37.654 14.0133 37.2813 13.6289 37.0095 13.132C36.7378 12.6273 36.6019 12.0449 36.6019 11.3849C36.6019 10.7249 36.7339 10.1465 36.9979 9.64954C37.2619 9.1526 37.6307 8.77213 38.1043 8.50813C38.5858 8.23636 39.137 8.10048 39.7582 8.10048C40.3639 8.10048 40.8996 8.23248 41.3655 8.49648C41.8314 8.76048 42.1886 9.12542 42.437 9.5913C42.6933 10.0494 42.8214 10.5697 42.8214 11.152ZM41.7266 10.9307C41.7266 10.5269 41.6373 10.1814 41.4587 9.89413C41.2801 9.59907 41.0355 9.37777 40.7249 9.23024C40.4221 9.07495 40.0843 8.9973 39.7116 8.9973C39.1759 8.9973 38.7178 9.16813 38.3373 9.50977C37.9646 9.85142 37.751 10.3251 37.6967 10.9307H41.7266ZM52.7228 8.2053L50.7311 14.5879H49.6363L48.0989 9.52142L46.5615 14.5879H45.4666L43.4634 8.2053H44.5465L46.0141 13.5629L47.5981 8.2053H48.6812L50.2303 13.5746L51.6745 8.2053H52.7228Z" fill="#858585"/>
<path fill-rule="evenodd" clip-rule="evenodd" d="M9.88232 10.3532C11.0764 7.32327 14.0235 5.17676 17.4745 5.17676C20.9255 5.17676 23.8726 7.32327 25.0666 10.3532C23.8726 13.3832 20.9255 15.5297 17.4745 15.5297C14.0235 15.5297 11.0764 13.3832 9.88232 10.3532ZM23.5621 10.3532C22.4233 8.0272 20.0904 6.55709 17.4746 6.55709C14.8587 6.55709 12.5259 8.0272 11.387 10.3532C12.5259 12.6791 14.8587 14.1492 17.4746 14.1492C20.0904 14.1492 22.4233 12.6791 23.5621 10.3532ZM17.4745 8.6278C18.427 8.6278 19.2 9.40082 19.2 10.3533C19.2 11.3058 18.427 12.0788 17.4745 12.0788C16.522 12.0788 15.749 11.3058 15.749 10.3533C15.749 9.40082 16.522 8.6278 17.4745 8.6278ZM14.3686 10.353C14.3686 8.64131 15.7628 7.24711 17.4744 7.24711C19.1861 7.24711 20.5803 8.64131 20.5803 10.353C20.5803 12.0647 19.1861 13.4589 17.4744 13.4589C15.7628 13.4589 14.3686 12.0647 14.3686 10.353Z" fill="black" fill-opacity="0.54"/>
<defs>
<filter id="filter0_d" x="0.82353" y="0" width="60.8235" height="31.0588" filterUnits="userSpaceOnUse" color-interpolation-filters="sRGB">
<feFlood flood-opacity="0" result="BackgroundImageFix"/>
<feColorMatrix in="SourceAlpha" type="matrix" values="0 0 0 0 0 0 0 0 0 0 0 0 0 0 0 0 0 0 127 0"/>
<feOffset dy="5.17647"/>
<feGaussianBlur stdDeviation="2.58824"/>
<feColorMatrix type="matrix" values="0 0 0 0 0 0 0 0 0 0 0 0 0 0 0 0 0 0 0.25 0"/>
<feBlend mode="normal" in2="BackgroundImageFix" result="effect1_dropShadow"/>
<feBlend mode="normal" in="SourceGraphic" in2="effect1_dropShadow" result="shape"/>
</filter>
</defs>
</svg>
